<svg xmlns="http://www.w3.org/2000/svg" viewBox="0 0 250 250" width="250" height="250">
  <!-- Фон -->
  <rect width="250" height="250" rx="40" fill="#1a1a1a"/>

  <!-- Сетка кнопок 2x3 -->

  <!-- Ряд 1 -->
  <!-- Кнопка 1: текст/лирика (буква A с подчёркиванием) -->
  <rect x="28" y="68" width="58" height="46" rx="10" fill="#2a2a2a" stroke="#c0a0ff" stroke-width="3"/>
  <text x="57" y="100" font-family="serif" font-size="26" font-weight="700" fill="#c0a0ff" text-anchor="middle">A</text>
  <line x1="42" y1="106" x2="72" y2="106" stroke="#c0a0ff" stroke-width="2.5" stroke-linecap="round" opacity="0.6"/>

  <!-- Кнопка 2: очередь (три линии) -->
  <rect x="96" y="68" width="58" height="46" rx="10" fill="#2a2a2a" stroke="#c0a0ff" stroke-width="3"/>
  <line x1="110" y1="84"  x2="140" y2="84"  stroke="#c0a0ff" stroke-width="3.5" stroke-linecap="round"/>
  <line x1="110" y1="91"  x2="140" y2="91"  stroke="#c0a0ff" stroke-width="3.5" stroke-linecap="round" opacity="0.7"/>
  <line x1="110" y1="98"  x2="140" y2="98"  stroke="#c0a0ff" stroke-width="3.5" stroke-linecap="round" opacity="0.4"/>
  <circle cx="143" cy="104" r="5" fill="none" stroke="#c0a0ff" stroke-width="2.5"/>
  <line x1="147" y1="108" x2="151" y2="112" stroke="#c0a0ff" stroke-width="2.5" stroke-linecap="round"/>

  <!-- Кнопка 3: громкость (динамик) — Feather Icons "volume-2", viewBox 24x24 -->
  <rect x="164" y="68" width="58" height="46" rx="10" fill="#2a2a2a" stroke="#c0a0ff" stroke-width="3"/>
  <g transform="translate(193,91) scale(1.45) translate(-12,-12)">
    <g fill="none" stroke="#c0a0ff" stroke-width="1.6" stroke-linecap="round" stroke-linejoin="round">
      <polygon points="11,5 6,9 2,9 2,15 6,15 11,19"/>
      <path d="M15.54 8.46a5 5 0 0 1 0 7.07"/>
      <path d="M19.07 4.93a10 10 0 0 1 0 14.14"/>
    </g>
  </g>

  <!-- Ряд 2 -->
  <!-- Кнопка 4: скачать (стрелка вниз) -->
  <rect x="28" y="136" width="58" height="46" rx="10" fill="#2a2a2a" stroke="#c0a0ff" stroke-width="3"/>
  <line x1="57" y1="148" x2="57" y2="168" stroke="#c0a0ff" stroke-width="4" stroke-linecap="round"/>
  <polyline points="46,160 57,172 68,160" fill="none" stroke="#c0a0ff" stroke-width="4" stroke-linecap="round" stroke-linejoin="round"/>
  <line x1="46" y1="175" x2="68" y2="175" stroke="#c0a0ff" stroke-width="3" stroke-linecap="round" opacity="0.7"/>

  <!-- Кнопка 5: качество (HD значок) -->
  <rect x="96" y="136" width="58" height="46" rx="10" fill="#2a2a2a" stroke="#c0a0ff" stroke-width="3"/>
  <text x="125" y="168" font-family="sans-serif" font-size="18" font-weight="800" fill="#c0a0ff" text-anchor="middle">MP3</text>

  <!-- Кнопка 6: настройки (шестерёнка) -->
  <rect x="164" y="136" width="58" height="46" rx="10" fill="#c0a0ff"/>
  <g transform="translate(181,147)">
    <!-- Feather Icons "settings" path, viewBox 24x24, scaled to fit -->
    <g transform="scale(1.0)" fill="none" stroke="#2a2a2a" stroke-width="2" stroke-linecap="round" stroke-linejoin="round">
      <circle cx="12" cy="12" r="3"/>
      <path d="M19.4 15a1.65 1.65 0 0 0 .33 1.82l.06.06a2 2 0 0 1-2.83 2.83l-.06-.06a1.65 1.65 0 0 0-1.82-.33 1.65 1.65 0 0 0-1 1.51V21a2 2 0 0 1-4 0v-.09A1.65 1.65 0 0 0 9 19.4a1.65 1.65 0 0 0-1.82.33l-.06.06a2 2 0 0 1-2.83-2.83l.06-.06A1.65 1.65 0 0 0 4.68 15a1.65 1.65 0 0 0-1.51-1H3a2 2 0 0 1 0-4h.09A1.65 1.65 0 0 0 4.6 9a1.65 1.65 0 0 0-.33-1.82l-.06-.06a2 2 0 0 1 2.83-2.83l.06.06A1.65 1.65 0 0 0 9 4.68a1.65 1.65 0 0 0 1-1.51V3a2 2 0 0 1 4 0v.09a1.65 1.65 0 0 0 1 1.51 1.65 1.65 0 0 0 1.82-.33l.06-.06a2 2 0 0 1 2.83 2.83l-.06.06A1.65 1.65 0 0 0 19.4 9a1.65 1.65 0 0 0 1.51 1H21a2 2 0 0 1 0 4h-.09a1.65 1.65 0 0 0-1.51 1z"/>
    </g>
  </g>
</svg>
